<?xml version="1.0" encoding="UTF-8"?>
<svg id="_レイヤー_1" data-name="レイヤー 1" xmlns="http://www.w3.org/2000/svg" viewBox="0 0 400 225">
  <defs>
    <style>
      .cls-1 {
        fill: #ffd166;
      }

      .cls-2 {
        fill: #e4e4e4;
      }

      .cls-3 {
        fill: #c3cfd8;
      }
    </style>
  </defs>
  <path class="cls-3" d="M242.65,81.41l1.76-1.01,4.47-2.58-4.47-2.58-3.74-2.16-6.23,3.6,8.22,4.74"/>
  <path class="cls-3" d="M187.78,96.79v55.01l5.65,3.27v-54.69l-5.65-3.59"/>
  <path class="cls-1" d="M241.08,117.12l-2.99,1.73-1.18.68-9.17,5.3-12.72,7.34-5.66,3.27v-4.7l5.66-3.27,12.72-7.34,9.17-5.29,1.18-.68,2.99-1.73v4.69ZM241.08,126.51l-2.99,1.73-1.18.68-9.17,5.3-12.72,7.34-5.66,3.27v-4.7l5.66-3.27,12.72-7.34,9.17-5.3,1.18-.68,2.99-1.73v4.7ZM209.36,120.56l5.66-3.27,12.72-7.34,3.17-1.83v4.7l-3.17,1.83-12.72,7.34-5.66,3.27v-4.7ZM209.36,111.17l5.66-3.27,12.72-7.34,3.17-1.83v4.7l-3.17,1.83-12.72,7.34-5.66,3.27v-4.7ZM244.43,80.33l-1.76,1.01-13.7,7.91-18.99,10.96-8.45,4.88v54.7l47.36-27.35v-54.69l-4.47,2.58"/>
  <path class="cls-2" d="M234.83,69.67l-47.08,27.18,5.65,3.59v-.07l41.07-23.71,6.23-3.6-5.87-3.39"/>
  <path class="cls-3" d="M222.76,70.01l1.76-1.01,4.47-2.58-4.47-2.58-3.74-2.16-6.23,3.6,8.22,4.75"/>
  <path class="cls-3" d="M167.89,85.39v54.93l5.65,3.27v-54.61l-5.65-3.59"/>
  <path class="cls-1" d="M186.35,96.12l42.66-24.63v-5.14l-47.36,27.35v54.69l4.71,2.64v-54.9"/>
  <path class="cls-2" d="M214.94,58.27l-47.08,27.18,5.65,3.59v-.07l47.3-27.31-5.87-3.39"/>
  <path class="cls-3" d="M210.03,55.12l-4.47-2.58-3.75-2.16-6.23,3.6,8.22,4.74,1.76-1.01,4.47-2.58"/>
  <path class="cls-3" d="M148.94,129.37l5.65,3.26v-54.95l-5.65-3.59v55.28"/>
  <path class="cls-1" d="M166.46,92.23v-7.52l12.91-7.46,27.94-16.13,1.33-.77,1.4-.81v-4.49l-4.47,2.58-1.76,1.01-28.24,16.31-12.9,7.44v54.96l2.38,1.37,1.4.81v-47.31"/>
  <path class="cls-2" d="M195.98,46.98l-47.08,27.18,5.65,3.59v-.08l41.07-23.71,6.23-3.6-5.87-3.39"/>
  <g id="text-logo-path-0">
    <path class="cls-1" d="M159.79,170.07v9.87l-2.74,5.43-2.72-5.43v-9.87c0-.24-.21-.46-.46-.46h-4.53c-.24,0-.45.21-.45.46v9.78c0,.06.03.12.06.18l5.25,10.5c.09.15.24.24.42.24h4.86c.18,0,.34-.09.43-.24l5.25-10.5c.03-.06.06-.13.06-.18v-9.78c0-.24-.21-.46-.45-.46h-4.53c-.24,0-.46.21-.46.46ZM184.42,169.62h-12.7c-.24,0-.46.21-.46.46v20.25c0,.24.21.45.46.45h12.7c.24,0,.46-.21.46-.45v-4.22c0-.24-.22-.46-.46-.46h-7.73v-2.86h4.98c.24,0,.48-.24.48-.48v-4.2c0-.24-.24-.48-.48-.48h-4.98v-2.87h7.73c.24,0,.46-.21.46-.45v-4.22c0-.24-.22-.46-.46-.46ZM205.42,169.62h-11.8c-1.51,0-2.72,1.24-2.72,2.74v15.66c0,1.51,1.24,2.74,2.74,2.74h2.69v-.03h9.08c.24,0,.45-.21.45-.45v-4.22c0-.24-.21-.46-.45-.46h-8.63c-.24,0-.45-.21-.45-.45v-9.96c0-.24.21-.46.45-.46h8.63c.24,0,.45-.21.45-.45v-4.22c0-.24-.21-.46-.45-.46ZM212.36,174.75h4.98v15.57c0,.24.21.45.46.45h4.53c.24,0,.48-.21.48-.45v-15.57h4.98c.24,0,.46-.21.46-.45v-4.22c0-.24-.21-.46-.46-.46h-15.42c-.24,0-.46.21-.46.46v4.22c0,.24.21.45.46.45ZM237.89,169.86l-5.25,10.5c-.03.06-.06.12-.06.18v9.78c0,.24.21.45.45.45h4.53c.24,0,.46-.21.46-.45v-4.71h5.46v4.71c0,.24.21.45.46.45h4.53c.24,0,.45-.21.45-.45v-9.78c0-.06-.03-.13-.06-.18l-5.26-10.5c-.09-.15-.24-.24-.42-.24h-4.86c-.18,0-.33.09-.42.24ZM238.34,179.82l1.99-3.98c.09-.18.24-.24.42-.24.15,0,.3.06.39.24l1.99,3.95c.15.3-.09.67-.42.67l-3.96.03c-.33,0-.57-.36-.42-.67Z"/>
  </g>
</svg>