<?xml version="1.0" encoding="UTF-8"?>
<svg id="_レイヤー_1" data-name="レイヤー 1" xmlns="http://www.w3.org/2000/svg" viewBox="0 0 300 100">
  <defs>
    <style>
      .cls-1 {
        fill: #e4e4e4;
      }

      .cls-2 {
        fill: #01193f;
      }

      .cls-3 {
        fill: #c3cfd8;
      }

      .cls-4 {
        fill: #082245;
      }
    </style>
  </defs>
  <g>
    <path class="cls-3" d="M71.93,36.68l1.09-.63,2.79-1.61-2.79-1.61-2.33-1.35-3.88,2.24,5.12,2.96"/>
    <path class="cls-3" d="M37.73,46.26v34.29l3.52,2.04v-34.09l-3.52-2.24"/>
    <path class="cls-2" d="M70.95,58.94l-1.87,1.08-.73.42-5.72,3.3-7.93,4.58-3.53,2.04v-2.93l3.53-2.04,7.93-4.58,5.72-3.3.73-.42,1.87-1.08v2.93ZM70.95,64.79l-1.87,1.08-.73.42-5.72,3.3-7.93,4.58-3.53,2.04v-2.93l3.53-2.04,7.93-4.58,5.72-3.3.73-.42,1.87-1.08v2.93ZM51.18,61.08l3.53-2.04,7.93-4.58,1.97-1.14v2.93l-1.97,1.14-7.93,4.58-3.53,2.04v-2.93ZM51.18,55.23l3.53-2.04,7.93-4.58,1.97-1.14v2.93l-1.97,1.14-7.93,4.58-3.53,2.04v-2.93ZM73.04,36l-1.09.63-8.54,4.93-11.84,6.83-5.27,3.04v34.09l29.52-17.05v-34.09l-2.79,1.61"/>
    <path class="cls-1" d="M67.06,29.36l-29.35,16.94,3.52,2.24v-.04l25.6-14.78,3.88-2.24-3.66-2.11"/>
    <path class="cls-3" d="M59.53,29.57l1.09-.63,2.79-1.61-2.79-1.61-2.33-1.35-3.88,2.24,5.12,2.96"/>
    <path class="cls-3" d="M25.33,39.16v34.24l3.52,2.04v-34.04l-3.52-2.24"/>
    <path class="cls-2" d="M36.84,45.84l26.59-15.35v-3.2l-29.52,17.05v34.09l2.93,1.64v-34.22"/>
    <path class="cls-1" d="M54.66,22.25l-29.35,16.95,3.52,2.24v-.04l29.49-17.02-3.66-2.11"/>
    <path class="cls-3" d="M51.6,20.29l-2.79-1.61-2.33-1.35-3.88,2.24,5.12,2.96,1.09-.63,2.79-1.61"/>
    <path class="cls-3" d="M13.52,66.57l3.52,2.03v-34.25l-3.52-2.24v34.46"/>
    <path class="cls-2" d="M24.44,43.42v-4.68l8.05-4.65,17.42-10.06.83-.48.87-.51v-2.8l-2.79,1.61-1.09.63-17.6,10.16-8.04,4.64v34.26l1.48.85.87.5v-29.49"/>
    <path class="cls-1" d="M42.84,15.22l-29.35,16.94,3.52,2.24v-.05l25.6-14.78,3.88-2.24-3.66-2.11"/>
  </g>
  <g id="text-logo-path-0">
    <path class="cls-4" d="M122.25,33.59v16.35l-4.55,9-4.5-9v-16.35c0-.41-.35-.75-.75-.75h-7.5c-.4,0-.75.35-.75.75v16.2c0,.09.05.2.1.3l8.7,17.4c.15.25.4.4.7.4h8.05c.3,0,.56-.15.71-.4l8.7-17.4c.05-.1.09-.21.09-.3v-16.2c0-.41-.35-.75-.75-.75h-7.5c-.41,0-.75.35-.75.75ZM163.07,32.84h-21.05c-.41,0-.75.35-.75.75v33.55c0,.4.35.75.75.75h21.05c.4,0,.75-.35.75-.75v-7c0-.41-.36-.75-.75-.75h-12.8v-4.75h8.26c.4,0,.8-.41.8-.8v-6.95c0-.4-.41-.79-.8-.79h-8.26v-4.76h12.8c.4,0,.75-.35.75-.75v-7c0-.41-.36-.75-.75-.75ZM197.87,32.84h-19.55c-2.5,0-4.5,2.05-4.5,4.55v25.96c0,2.5,2.05,4.55,4.55,4.55h4.45v-.05h15.05c.4,0,.75-.35.75-.75v-7c0-.41-.35-.75-.75-.75h-14.3c-.4,0-.75-.35-.75-.75v-16.5c0-.41.35-.75.75-.75h14.3c.4,0,.75-.35.75-.75v-7c0-.41-.35-.75-.75-.75ZM209.38,41.34h8.25v25.81c0,.4.35.75.75.75h7.5c.4,0,.8-.35.8-.75v-25.81h8.25c.41,0,.75-.35.75-.75v-7c0-.41-.35-.75-.75-.75h-25.55c-.41,0-.75.35-.75.75v7c0,.4.35.75.75.75ZM251.69,33.23l-8.7,17.41c-.06.09-.1.2-.1.3v16.2c0,.4.35.75.75.75h7.5c.41,0,.75-.35.75-.75v-7.8h9.05v7.8c0,.4.35.75.75.75h7.5c.4,0,.75-.35.75-.75v-16.2c0-.1-.05-.21-.09-.3l-8.71-17.41c-.14-.25-.4-.4-.7-.4h-8.05c-.3,0-.55.15-.7.4ZM252.43,49.74l3.3-6.6c.15-.3.4-.41.7-.41.25,0,.5.1.65.41l3.3,6.55c.25.5-.15,1.1-.7,1.1l-6.56.05c-.55,0-.94-.6-.7-1.1Z"/>
  </g>
</svg>