<?xml version="1.0" encoding="UTF-8"?>
<svg id="_レイヤー_1" data-name="レイヤー 1" xmlns="http://www.w3.org/2000/svg" viewBox="0 0 300 100">
  <defs>
    <style>
      .cls-1 {
        fill: #e4e4e4;
      }

      .cls-2 {
        fill: #01193f;
      }

      .cls-3 {
        fill: #c3cfd8;
      }

      .cls-4 {
        fill: #082245;
      }
    </style>
  </defs>
  <g>
    <path class="cls-3" d="M71.93,36.68l1.09-.63,2.79-1.61-2.79-1.61-2.33-1.35-3.88,2.24,5.12,2.96"/>
    <path class="cls-3" d="M37.73,46.26v34.29l3.52,2.04v-34.09l-3.52-2.24"/>
    <path class="cls-2" d="M70.95,58.94l-1.87,1.08-.73.42-5.72,3.3-7.93,4.58-3.53,2.04v-2.93l3.53-2.04,7.93-4.58,5.72-3.3.73-.42,1.87-1.08v2.93ZM70.95,64.79l-1.87,1.08-.73.42-5.72,3.3-7.93,4.58-3.53,2.04v-2.93l3.53-2.04,7.93-4.58,5.72-3.3.73-.42,1.87-1.08v2.93ZM51.18,61.08l3.53-2.04,7.93-4.58,1.97-1.14v2.93l-1.97,1.14-7.93,4.58-3.53,2.04v-2.93ZM51.18,55.23l3.53-2.04,7.93-4.58,1.97-1.14v2.93l-1.97,1.14-7.93,4.58-3.53,2.04v-2.93ZM73.04,36l-1.09.63-8.54,4.93-11.84,6.83-5.27,3.04v34.09l29.52-17.05v-34.09l-2.79,1.61"/>
    <path class="cls-1" d="M67.06,29.36l-29.35,16.94,3.52,2.24v-.04l25.6-14.78,3.88-2.24-3.66-2.11"/>
    <path class="cls-3" d="M59.53,29.57l1.09-.63,2.79-1.61-2.79-1.61-2.33-1.35-3.88,2.24,5.12,2.96"/>
    <path class="cls-3" d="M25.33,39.16v34.24l3.52,2.04v-34.04l-3.52-2.24"/>
    <path class="cls-2" d="M36.84,45.84l26.59-15.35v-3.2l-29.52,17.05v34.09l2.93,1.64v-34.22"/>
    <path class="cls-1" d="M54.66,22.25l-29.35,16.95,3.52,2.24v-.04l29.49-17.02-3.66-2.11"/>
    <path class="cls-3" d="M51.6,20.29l-2.79-1.61-2.33-1.35-3.88,2.24,5.12,2.96,1.09-.63,2.79-1.61"/>
    <path class="cls-3" d="M13.52,66.57l3.52,2.03v-34.25l-3.52-2.24v34.46"/>
    <path class="cls-2" d="M24.44,43.42v-4.68l8.05-4.65,17.42-10.06.83-.48.87-.51v-2.8l-2.79,1.61-1.09.63-17.6,10.16-8.04,4.64v34.26l1.48.85.87.5v-29.49"/>
    <path class="cls-1" d="M42.84,15.22l-29.35,16.94,3.52,2.24v-.05l25.6-14.78,3.88-2.24-3.66-2.11"/>
  </g>
  <g id="text-logo">
    <g id="text-logo-path-0">
      <path class="cls-4" d="M89.48,28.07l8.12,45.39h12.95l8.11-45.39h-7.96l-5.65,38.9h-2.26l-5.7-38.9h-7.61ZM134.63,73.46h25.14v-5.66h-18.81v-8.94h18.64v-21.06h-24.98v35.67ZM140.96,53.03v-9.41h12.78v9.41h-12.78ZM178.95,73.46h24.47v-5.66h-18.13v-24.1h12.78v7.09h6.02v-12.99h-25.14v35.67ZM223.26,43.46h7.28v30h14.6v-5.66h-8.58v-24.34h8.58v-5.66h-8.58v-10.53h-6.02v10.53h-7.28v5.66ZM264.34,43.46h18.81v8.95h-18.64v21.05h24.98v-35.67h-25.14v5.66ZM270.31,67.65v-9.43h12.83v9.43h-12.83Z"/>
    </g>
  </g>
</svg>