<svg width="216" height="58" viewBox="0 0 216 58" fill="none" xmlns="http://www.w3.org/2000/svg">
<path d="M36.0352 1.07422L25.9766 57.0312H9.96094L0 1.07422H9.375L16.4062 49.0234H19.2383L26.1719 1.07422H36.0352ZM55.7617 39.0625V50H78.9062V57.0312H47.9492V12.9883H78.7109V39.0625H55.7617ZM55.7617 31.8359H71.582V20.2148H55.7617V31.8359ZM118.555 20.3125H102.734V50H125.098V57.0312H94.9219V12.9883H125.879V29.0039H118.555V20.3125ZM168.848 57.0312H150.879V20.0195H141.895V12.9883H150.879V0H158.301V12.9883H168.848V20.0195H158.301V50H168.848V57.0312ZM208.008 31.0547V20.0195H184.863V12.9883H215.82V57.0312H185.059V31.0547H208.008ZM208.008 38.1836H192.285V49.8047H208.008V38.1836Z" fill="#0A1E3C"/>
</svg>
