<?xml version="1.0" encoding="UTF-8"?>
<svg id="_レイヤー_1" data-name="レイヤー 1" xmlns="http://www.w3.org/2000/svg" viewBox="0 0 512 512">
  <defs>
    <style>
      .cls-1 {
        fill: #e4e4e4;
      }

      .cls-2 {
        fill: #01193f;
      }

      .cls-3 {
        fill: #c3cfd8;
      }

      .cls-4 {
        fill: #fff;
      }
    </style>
  </defs>
  <rect class="cls-4" width="512" height="512"/>
  <g>
    <path class="cls-3" d="M405.55,181.08l6.01-3.47,15.31-8.85-15.31-8.84-12.82-7.4-21.33,12.31,28.14,16.24"/>
    <path class="cls-3" d="M217.68,233.74v188.39l19.36,11.18v-187.28l-19.36-12.29"/>
    <path class="cls-2" d="M400.18,303.36l-10.25,5.93-4.03,2.32-31.42,18.14-43.55,25.14-19.39,11.2v-16.08l19.39-11.19,43.55-25.15,31.42-18.13,4.03-2.32,10.25-5.92v16.07ZM400.18,335.52l-10.25,5.93-4.03,2.32-31.42,18.14-43.55,25.14-19.39,11.19v-16.08l19.39-11.19,43.55-25.14,31.42-18.14,4.03-2.33,10.25-5.92v16.08ZM291.55,315.16l19.39-11.19,43.55-25.14,10.84-6.26v16.08l-10.84,6.25-43.55,25.15-19.39,11.18v-16.08ZM291.55,282.99l19.39-11.19,43.55-25.14,10.84-6.26v16.08l-10.84,6.26-43.55,25.14-19.39,11.18v-16.08ZM411.65,177.38l-6.01,3.47-46.9,27.07-65.02,37.54-28.95,16.71v187.3l162.19-93.65v-187.29l-15.31,8.85"/>
    <path class="cls-1" d="M378.78,140.88l-161.23,93.09,19.36,12.29v-.24l140.65-81.21,21.33-12.31-20.11-11.61"/>
    <path class="cls-3" d="M337.44,142.04l6.01-3.47,15.31-8.85-15.31-8.84-12.82-7.41-21.32,12.31,28.13,16.25"/>
    <path class="cls-3" d="M149.56,194.7v188.1l19.36,11.18v-187l-19.36-12.28"/>
    <path class="cls-2" d="M212.78,231.43l146.07-84.35v-17.59l-162.2,93.65v187.28l16.12,9.03v-188.01"/>
    <path class="cls-1" d="M310.66,101.84l-161.23,93.09,19.36,12.28v-.24l161.98-93.53-20.11-11.61"/>
    <path class="cls-3" d="M293.85,91.07l-15.31-8.84-12.83-7.41-21.32,12.32,28.14,16.24,6.01-3.47,15.31-8.85"/>
    <path class="cls-3" d="M84.66,345.33l19.36,11.18v-188.18l-19.36-12.29v189.29"/>
    <path class="cls-2" d="M144.66,218.12v-25.73l44.22-25.54,95.68-55.24,4.56-2.62,4.81-2.79v-15.36l-15.31,8.85-6.01,3.47-96.71,55.84-44.16,25.49v188.19l8.14,4.69,4.78,2.76v-162"/>
    <path class="cls-1" d="M245.75,63.18l-161.23,93.09,19.36,12.29v-.26l140.66-81.2,21.32-12.32-20.11-11.6"/>
  </g>
</svg>