<svg width="1200" height="600" viewBox="0 0 1200 600" fill="none" xmlns="http://www.w3.org/2000/svg">
  <g transform="translate(85 117.5)">
  <g id="symbol">
    <path d="M117.4 290.752L139.7 303.635V148.635L117.4 135.749V290.752Z" fill="#0A1E3C"/>
    <path d="M162.01 316.542L184.31 329.426V174.426L162.01 161.539V316.542Z" fill="#C3CED8"/>
    <path d="M184.307 174.402L162 161.531L296.234 84.0314L318.544 96.9004L184.307 174.402Z" fill="#E4E4E4"/>
    <path d="M72.7029 264.653L95.0028 277.536V122.536L72.7029 109.65V264.653Z" fill="#C3CED8"/>
    <path d="M95.0001 122.513L72.6929 109.642L206.927 32.1422L229.237 45.0112L95.0001 122.513Z" fill="#E4E4E4"/>
    <path d="M139.707 148.671L117.4 135.8L251.634 58.2999L273.944 71.1689L139.707 148.671Z" fill="#0A1E3C"/>
    <path d="M207.55 187.499L341.802 109.999L341.802 264.999L207.55 342.499L207.55 187.499Z" fill="#0A1E3C"/>
    <path d="M233.8 206.614L233.8 220.578L273.8 197.463V183.499L233.8 206.614Z" fill="white"/>
    <path d="M233.8 231.614L233.8 245.578L274.067 222.308V208.344L233.8 231.614Z" fill="white"/>
    <path d="M233.8 256.097L233.8 270.061L312.8 224.151V210.187L233.8 256.097Z" fill="white"/>
    <path d="M233.8 280.65L233.8 294.614L312.8 248.704V234.74L233.8 280.65Z" fill="white"/>
  </g>
  <path transform="translate(430 110) scale(2.5)" d="M36.0352 1.07422L25.9766 57.0312H9.96094L0 1.07422H9.375L16.4062 49.0234H19.2383L26.1719 1.07422H36.0352ZM55.7617 39.0625V50H78.9062V57.0312H47.9492V12.9883H78.7109V39.0625H55.7617ZM55.7617 31.8359H71.582V20.2148H55.7617V31.8359ZM118.555 20.3125H102.734V50H125.098V57.0312H94.9219V12.9883H125.879V29.0039H118.555V20.3125ZM168.848 57.0312H150.879V20.0195H141.895V12.9883H150.879V0H158.301V12.9883H168.848V20.0195H158.301V50H168.848V57.0312ZM208.008 31.0547V20.0195H184.863V12.9883H215.82V57.0312H185.059V31.0547H208.008ZM208.008 38.1836H192.285V49.8047H208.008V38.1836Z" fill="#0A1E3C"/>
  </g>
</svg>
